<?xml version="1.0" encoding="utf-8"?>
<!-- Generator: Adobe Illustrator 24.0.1, SVG Export Plug-In . SVG Version: 6.00 Build 0)  -->
<svg version="1.1" id="Layer_1" xmlns="http://www.w3.org/2000/svg" xmlns:xlink="http://www.w3.org/1999/xlink" x="0px" y="0px"
	 viewBox="0 0 434.65 660.88" style="enable-background:new 0 0 434.65 660.88;" xml:space="preserve">
<style type="text/css">
	.st0{fill:#1C2540;}
	.st1{fill:#008752;}
</style>
<g>
	<path class="st0" d="M432.74,80.84L290.66,0l-3.41,1.9L147.4,79.71l-7.45,4.15l-0.74,0.41L0,161.72v12.93v153.4v166.58
		l145.88-83.59l1.52,0.86v-1.74V258.51l132.94,75.63l6.91,3.93v-7.89l141.61-81.14l0.73-0.42l5.06-2.9V81.92v-2.18L432.74,80.84z
		 M147.4,244.42V88.92l136.14,77.45L147.4,244.42z"/>
	<polygon class="st1" points="287.25,495.14 147.4,576.14 147.4,581.51 286.92,660.88 287.25,660.69 434.65,576.24 434.65,575.34 
		434.65,421.94 424.05,415.9 287.25,338.08 287.25,491.48 	"/>
</g>
</svg>
